<svg xmlns="http://www.w3.org/2000/svg" viewBox="0 0 24 24" fill="none" x="0px" y="0px"><path d="M4 5C4 4.44772 4.44772 4 5 4H7.5C8.05228 4 8.5 3.55228 8.5 3C8.5 2.44772 8.05228 2 7.5 2H5C3.34315 2 2 3.34315 2 5V7.5C2 8.05228 2.44772 8.5 3 8.5C3.55228 8.5 4 8.05228 4 7.5V5Z" fill="#e4ff30"/><path d="M16.5 2C15.9477 2 15.5 2.44772 15.5 3C15.5 3.55228 15.9477 4 16.5 4H19C19.5523 4 20 4.44772 20 5V7.5C20 8.05228 20.4477 8.5 21 8.5C21.5523 8.5 22 8.05228 22 7.5V5C22 3.34315 20.6569 2 19 2H16.5Z" fill="#e4ff30"/><path d="M4 16.5C4 15.9477 3.55228 15.5 3 15.5C2.44772 15.5 2 15.9477 2 16.5V19C2 20.6569 3.34315 22 5 22H7.5C8.05228 22 8.5 21.5523 8.5 21C8.5 20.4477 8.05228 20 7.5 20H5C4.44772 20 4 19.5523 4 19V16.5Z" fill="#e4ff30"/><path d="M22 16.5C22 15.9477 21.5523 15.5 21 15.5C20.4477 15.5 20 15.9477 20 16.5V19C20 19.5523 19.5523 20 19 20H17C16.4477 20 16 20.4477 16 21C16 21.5523 16.4477 22 17 22H19C20.6569 22 22 20.6569 22 19V16.5Z" fill="#e4ff30"/><path fill-rule="evenodd" clip-rule="evenodd" d="M8 7C6.89543 7 6 7.89543 6 9V15C6 16.1046 6.89543 17 8 17H16C17.1046 17 18 16.1046 18 15V9C18 7.89543 17.1046 7 16 7H8ZM9 14C9 14.5523 9.44771 15 10 15C10.5523 15 11 14.5523 11 14V10C11 9.44771 10.5523 9 10 9C9.44771 9 9 9.44772 9 10V14ZM14 15C13.4477 15 13 14.5523 13 14V10C13 9.44772 13.4477 9 14 9C14.5523 9 15 9.44771 15 10V14C15 14.5523 14.5523 15 14 15Z" fill="white"/></svg>